<svg width="64" height="64" viewBox="0 0 64 64" fill="none" xmlns="http://www.w3.org/2000/svg">
<mask id="mask0_98_775" style="mask-type:luminance" maskUnits="userSpaceOnUse" x="7" y="0" width="50" height="61">
<path d="M7.16187 0H56.838V61H7.16187V0Z" fill="white"/>
</mask>
<g mask="url(#mask0_98_775)">
<path d="M48.644 32.4099C48.5739 24.6929 54.9525 20.9851 55.2399 20.8028C51.6511 15.553 46.0715 14.8381 44.0808 14.754C39.3354 14.2704 34.8143 17.5506 32.4031 17.5506C29.9918 17.5506 26.2768 14.8241 22.3375 14.9012C17.1575 14.9783 12.384 17.9081 9.7134 22.5481C4.33714 31.8702 8.33954 45.6991 13.5826 53.2759C16.1481 56.9767 19.1972 61.1471 23.2136 60.9929C27.0829 60.8387 28.5408 58.4906 33.2092 58.4906C37.8775 58.4906 39.1952 60.9929 43.2748 60.9158C47.4314 60.8317 50.0669 57.1309 52.6114 53.4161C55.5483 49.1195 56.761 44.9561 56.8311 44.7388C56.7399 44.7038 48.7281 41.6338 48.644 32.4099" fill="black"/>
</g>
<path d="M40.9686 9.74262C43.0995 7.16328 44.5364 3.57463 44.1439 0C41.0737 0.126163 37.3587 2.04665 35.1577 4.62599C33.1881 6.90394 31.4567 10.5557 31.9264 14.0602C35.34 14.3266 38.8377 12.3149 40.9686 9.74262Z" fill="black"/>
</svg>
